<svg xmlns="http://www.w3.org/2000/svg" xmlns:xlink="http://www.w3.org/1999/xlink" viewBox="0 0 188 188"><defs><style>.cls-1,.cls-2{fill:none;}.cls-1{clip-rule:evenodd;}.cls-3{clip-path:url(#clip-path);}.cls-4{clip-path:url(#clip-path-2);}.cls-5{fill:#23c77d;}.cls-6{clip-path:url(#clip-path-3);}.cls-7{fill:#03ad6b;}.cls-8{clip-path:url(#clip-path-5);}.cls-9{fill:#00824d;}.cls-10{clip-path:url(#clip-path-7);}.cls-11{fill:#f7c32a;}.cls-12{clip-path:url(#clip-path-9);}.cls-13{fill:#f7d674;}.cls-14{clip-path:url(#clip-path-11);}.cls-15{fill:#e1eff4;}.cls-16{clip-path:url(#clip-path-13);}.cls-17{fill:#fff5f5;}.cls-18{clip-path:url(#clip-path-15);}.cls-19{fill:#16badb;}.cls-20{clip-path:url(#clip-path-17);}.cls-21{fill:#f45751;}.cls-22{clip-path:url(#clip-path-19);}.cls-23{fill:#f56d59;}.cls-24{clip-path:url(#clip-path-21);}.cls-25{fill:#f7b95f;}.cls-26{clip-path:url(#clip-path-23);}.cls-27{fill:#f7ad3b;}</style><clipPath id="clip-path"><path class="cls-1" d="M24.61,149.63a89,89,0,1,1,138.76,0,3.61,3.61,0,0,1-3.46,1.28A390.49,390.49,0,0,0,90,144.8,393.79,393.79,0,0,0,25.52,150,1,1,0,0,1,24.61,149.63Z"/></clipPath><clipPath id="clip-path-2"><rect class="cls-2" x="5" y="5" width="178" height="178"/></clipPath><clipPath id="clip-path-3"><path class="cls-2" d="M61.07,89.89h.86l-.43.52ZM87,74.73c7.6-9.31,10.25-19.44,5.79-23.93-3.6-3.62-10.87-2.58-18.41,2C73.84,39.46,68.28,29,61.5,29S49.16,39.46,48.58,52.79c-7.54-4.56-14.8-5.6-18.41-2C25.71,55.29,28.36,65.42,36,74.73a8.11,8.11,0,0,0-5.79,2.18c-5.07,5.1-1,17.49,9.18,27.68C46.8,112.09,55.44,116.3,61.5,116c6.06.32,14.7-3.89,22.15-11.39C93.79,94.4,97.9,82,92.83,76.91A8.1,8.1,0,0,0,87,74.73Z"/></clipPath><clipPath id="clip-path-5"><path class="cls-1" d="M140.07,104.4a8.21,8.21,0,0,1,2.56,5.66c0,7.21-11.63,13.06-26,13.06-7.95,0-15.06-1.8-19.82-4.63a18.47,18.47,0,0,1-4.07,5.79C88.7,128.84,79.63,132,69.08,132c-14.34,0-26-5.85-26-13.06a8.2,8.2,0,0,1,2.56-5.66C33.74,112.1,26,106.81,26,100.47c0-5.13,4.61-9.56,13.15-11.7-9-9.85-12.39-21.21-7.59-26s16.09-1.38,25.88,7.64c2.13-8.59,6.53-14.5,11.63-14.5,6.31,0,11.57,9.05,12.74,21.05a8.12,8.12,0,0,1,5.63-2.58,6.54,6.54,0,0,1,1.06.09c2.38-5.49,5.88-9,9.79-9a8.12,8.12,0,0,1,5.63,2.58c1.17-12,6.43-21.05,12.74-21.05,5.1,0,9.5,5.91,11.63,14.5,9.79-9,21.09-12.46,25.88-7.64s1.37,16.18-7.59,26C155.13,82,161,86.47,161,91.59,161,97.94,152,103.22,140.07,104.4Z"/></clipPath><clipPath id="clip-path-7"><path class="cls-1" d="M112.5,130A22.53,22.53,0,0,1,90,107.43V27.57a22.5,22.5,0,1,1,45,0v79.86A22.53,22.53,0,0,1,112.5,130Z"/></clipPath><clipPath id="clip-path-9"><path class="cls-1" d="M135,27.57v79.86a22.52,22.52,0,0,1-29.81,21.36A22.51,22.51,0,0,1,100,114.38V90.07a5.2,5.2,0,0,1,5.2-5.21h17.67a3.47,3.47,0,0,0,3.46-3.7,3.55,3.55,0,0,0-3.58-3.24H105.2a5.21,5.21,0,0,1,0-10.42h17.67a3.47,3.47,0,0,0,3.46-3.7,3.55,3.55,0,0,0-3.58-3.24H105.2a5.21,5.21,0,0,1,0-10.42h17.67a3.47,3.47,0,0,0,3.46-3.7,3.55,3.55,0,0,0-3.58-3.24H105.2a5.21,5.21,0,0,1,0-10.42h17.67a3.47,3.47,0,0,0,3.46-3.7,3.55,3.55,0,0,0-3.58-3.24H105.2a5.2,5.2,0,0,1-5.2-5.21,22.51,22.51,0,0,1,5.19-14.41A22.52,22.52,0,0,1,135,27.57Z"/></clipPath><clipPath id="clip-path-11"><path class="cls-1" d="M104.49,82.66a5.29,5.29,0,0,0,0,9A5.11,5.11,0,0,1,107,96.09V166.9a5.07,5.07,0,0,1-5,5.1H59a5.07,5.07,0,0,1-5-5.1V96.09a5.11,5.11,0,0,1,2.51-4.41,5.29,5.29,0,0,0,0-9A5.11,5.11,0,0,1,54,78.25V68A15.25,15.25,0,0,1,67,52.9a2.53,2.53,0,0,0,2.14-2.52V40H91.86V50.38A2.53,2.53,0,0,0,94,52.9,15.25,15.25,0,0,1,107,68v10.2A5.11,5.11,0,0,1,104.49,82.66Z"/></clipPath><clipPath id="clip-path-13"><path class="cls-1" d="M107,68.4V78.56A5.08,5.08,0,0,1,104.47,83a5.24,5.24,0,0,0,0,9A5.08,5.08,0,0,1,107,96.34v71.58a5.08,5.08,0,0,1-5.08,5.08H61.69a5,5,0,0,1-.69-2.54V98.88a5.08,5.08,0,0,1,2.53-4.39,5.23,5.23,0,0,0,0-9A5.08,5.08,0,0,1,61,81.1V70.94A15.25,15.25,0,0,1,74.09,55.85a2.53,2.53,0,0,0,2.16-2.51V43h15.5v7.8a2.53,2.53,0,0,0,2.16,2.51A15.25,15.25,0,0,1,107,68.4Z"/></clipPath><clipPath id="clip-path-15"><path class="cls-1" d="M99.18,73a.82.82,0,0,1,.82.81h0v9a4.42,4.42,0,0,1-2.59,3.88,4.32,4.32,0,0,0,0,7.94A4.41,4.41,0,0,1,100,98.49v65c0,2.48-2.33,4.48-5.2,4.48H66.2c-2.87,0-5.2-2-5.2-4.48v-65a4.41,4.41,0,0,1,2.59-3.88,4.32,4.32,0,0,0,0-7.94A4.42,4.42,0,0,1,61,82.79v-9h0a.82.82,0,0,1,.82-.81Z"/></clipPath><clipPath id="clip-path-17"><path class="cls-1" d="M95,36.41v8.17A3.45,3.45,0,0,1,91.52,48h-21A3.45,3.45,0,0,1,67,44.59V36.41A3.45,3.45,0,0,1,70.48,33h21A3.45,3.45,0,0,1,95,36.41Z"/></clipPath><clipPath id="clip-path-19"><path class="cls-2" d="M86.22,48h3.48V33H86.22Zm7.27-14.41V47.41A3.4,3.4,0,0,0,95,44.59V36.41A3.4,3.4,0,0,0,93.48,33.59ZM79,48h3.48V33H79ZM75.16,33V48A3.43,3.43,0,0,1,72,44.59V36.41A3.43,3.43,0,0,1,75.16,33Z"/></clipPath><clipPath id="clip-path-21"><path class="cls-1" d="M164,149.58a89,89,0,0,1-139,0V95.68a3.69,3.69,0,0,1,6.29-2.6L36.18,98a1.39,1.39,0,0,0,2,0l4.12-4.12a6.29,6.29,0,0,1,8.9,0L55.29,98a1.39,1.39,0,0,0,2,0l4.12-4.12a6.29,6.29,0,0,1,8.9,0L74.4,98a1.39,1.39,0,0,0,2,0l4.12-4.12a6.29,6.29,0,0,1,8.9,0L93.52,98a1.39,1.39,0,0,0,2,0l4.13-4.12a6.29,6.29,0,0,1,8.9,0L112.63,98a1.39,1.39,0,0,0,2,0l4.12-4.12a6.29,6.29,0,0,1,8.9,0L131.74,98a1.39,1.39,0,0,0,2,0l4.12-4.12a6.29,6.29,0,0,1,8.9,0L150.85,98a1.39,1.39,0,0,0,2,0l4.89-4.89a3.69,3.69,0,0,1,6.29,2.6v53.9Z"/></clipPath><clipPath id="clip-path-23"><path class="cls-1" d="M52.87,165.28A87.76,87.76,0,0,0,100,182.8c-1.94.13-3.9.2-5.88.2A88.15,88.15,0,0,1,25,149.58V95.68a3.66,3.66,0,0,1,6.26-2.6L36.12,98a1.37,1.37,0,0,0,.63.36v34.27A40.87,40.87,0,0,0,52.87,165.28Z"/></clipPath></defs><title>Ресурс 2</title><g id="Слой_2" data-name="Слой 2"><g id="Слой_1-2" data-name="Слой 1"><g class="cls-3"><g class="cls-4"><rect class="cls-5" width="188" height="156"/></g></g><g class="cls-6"><g class="cls-4"><rect class="cls-7" x="23" y="24" width="77" height="97"/></g></g><g class="cls-8"><g class="cls-4"><rect class="cls-9" x="21" y="42" width="145" height="95"/></g></g><g class="cls-10"><g class="cls-4"><rect class="cls-11" x="85" width="55" height="135"/></g></g><g class="cls-12"><g class="cls-4"><rect class="cls-13" x="95" width="45" height="135"/></g></g><g class="cls-14"><g class="cls-4"><rect class="cls-15" x="49" y="35" width="63" height="142"/></g></g><g class="cls-16"><g class="cls-4"><rect class="cls-17" x="56" y="38" width="56" height="140"/></g></g><g class="cls-18"><g class="cls-4"><rect class="cls-19" x="56" y="68" width="49" height="105"/></g></g><g class="cls-20"><g class="cls-4"><rect class="cls-21" x="62" y="28" width="38" height="25"/></g></g><g class="cls-22"><g class="cls-4"><rect class="cls-23" x="67" y="28" width="33" height="25"/></g></g><g class="cls-24"><g class="cls-4"><rect class="cls-25" x="20" y="87" width="149" height="101"/></g></g><g class="cls-26"><g class="cls-4"><rect class="cls-27" x="20" y="87" width="85" height="101"/></g></g></g></g></svg>