<svg xmlns="http://www.w3.org/2000/svg" xmlns:xlink="http://www.w3.org/1999/xlink" viewBox="0 0 187.65 187.65"><defs><style>.cls-1,.cls-2{fill:none;}.cls-1{clip-rule:evenodd;}.cls-3{clip-path:url(#clip-path);}.cls-4{clip-path:url(#clip-path-2);}.cls-5{fill:#f5cf51;}.cls-6{clip-path:url(#clip-path-3);}.cls-7{fill:#e1eff4;}.cls-8{clip-path:url(#clip-path-5);}.cls-9{fill:#fff5f5;}.cls-10{clip-path:url(#clip-path-7);}.cls-11{fill:#94d7e8;}.cls-12{clip-path:url(#clip-path-9);}.cls-13{fill:#b34068;}.cls-14{clip-path:url(#clip-path-11);}.cls-15{fill:#cc4978;}.cls-16{clip-path:url(#clip-path-13);}.cls-17{clip-path:url(#clip-path-15);}</style><clipPath id="clip-path"><path class="cls-1" d="M182.65,93.83A88.88,88.88,0,0,1,62,176.79a1.75,1.75,0,0,1-1-1,89.12,89.12,0,0,0-49.19-49.19,1.75,1.75,0,0,1-1-1,88.84,88.84,0,1,1,171.79-31.8Z"/></clipPath><clipPath id="clip-path-2"><rect class="cls-2" x="4.65" y="5" width="178" height="178"/></clipPath><clipPath id="clip-path-3"><path class="cls-1" d="M159.35,79.82l-9.81,9.81a6.93,6.93,0,0,1-6.69,1.8,7.15,7.15,0,0,0-8.69,8.69,6.94,6.94,0,0,1-1.8,6.69L62.29,176.89a89.09,89.09,0,0,1-51.52-51.52L80.84,55.29a6.93,6.93,0,0,1,6.69-1.8,7.15,7.15,0,0,0,8.69-8.69A6.94,6.94,0,0,1,98,38.11l9.81-9.81A20.82,20.82,0,0,1,135,26.36a3.45,3.45,0,0,0,4.51-.34L144.62,21A89.32,89.32,0,0,1,166.7,43l-5.07,5.07a3.45,3.45,0,0,0-.34,4.51A20.82,20.82,0,0,1,159.35,79.82Z"/></clipPath><clipPath id="clip-path-5"><path class="cls-1" d="M159.35,79.82l-9.81,9.81a6.93,6.93,0,0,1-6.69,1.8,7.15,7.15,0,0,0-8.69,8.69,6.94,6.94,0,0,1-1.8,6.69L62.29,176.89a89.14,89.14,0,0,1-47.1-41.72L85.5,64.86a6.93,6.93,0,0,1,6.69-1.8,7.15,7.15,0,0,0,8.69-8.69,6.93,6.93,0,0,1,1.8-6.69l9.81-9.81a20.82,20.82,0,0,1,27.21-1.94,3.45,3.45,0,0,0,4.51-.34l8.37-8.37A89.35,89.35,0,0,1,166.7,43l-5.07,5.07a3.45,3.45,0,0,0-.34,4.51A20.82,20.82,0,0,1,159.35,79.82Z"/></clipPath><clipPath id="clip-path-7"><path class="cls-1" d="M147.92,76.25a1.12,1.12,0,0,1,0,1.58h0l-8.65,8.65A6,6,0,0,1,133,87.7a5.87,5.87,0,0,0-7.66,7.66,6,6,0,0,1-1.21,6.27L61.42,164.34c-2.39,2.39-6.6,2.05-9.41-.76l-14-14-14-14c-2.81-2.81-3.14-7-.76-9.41L86,63.51A6,6,0,0,1,92.3,62.3,5.86,5.86,0,0,0,100,54.65a6,6,0,0,1,1.21-6.27l8.65-8.65h0a1.12,1.12,0,0,1,1.58,0Z"/></clipPath><clipPath id="clip-path-9"><path class="cls-2" d="M95.56,143.62l36.8-36.8L80.84,55.29,44,92.09Zm68.7-98.14L142.18,23.39a3.47,3.47,0,0,1,0-4.91L152,8.67a3.47,3.47,0,0,1,4.91,0L179,30.75a3.47,3.47,0,0,1,0,4.91l-9.81,9.81A3.47,3.47,0,0,1,164.26,45.47Z"/></clipPath><clipPath id="clip-path-11"><path class="cls-2" d="M158.14,39.35l14.72-14.72L169.18,21,154.46,35.67Zm3.43,3.42L151.13,32.35l14.72-14.72,10.43,10.43Zm18.18-10.87v0h0Zm0,0L165.45,46.25a3.47,3.47,0,0,0,3.72-.78L179,35.66A3.47,3.47,0,0,0,179.75,31.94ZM165.45,46.25a3.52,3.52,0,0,1-.61-.31A3.42,3.42,0,0,0,165.45,46.25ZM79.61,86a15.61,15.61,0,1,0,22.08,0A15.61,15.61,0,0,0,79.61,86Zm8.26-23.64,44.49,44.49-36.8,36.8L50.74,98.8S87.09,63,87.87,62.32Zm59.58-33.65,3.68,3.68Zm14.72-14.72L147.45,28.67l-.61-.61a3.47,3.47,0,0,1,0-4.91l9.81-9.81a3.47,3.47,0,0,1,4.91,0Z"/></clipPath><clipPath id="clip-path-13"><path class="cls-1" d="M71.33,104.79a11.53,11.53,0,0,1,8.89-11.22l17.21-4.06a.59.59,0,0,1,.71.71l-4.06,17.21a11.53,11.53,0,0,1-22.75-2.64Z"/></clipPath><clipPath id="clip-path-15"><path class="cls-1" d="M94.08,107.44a11.53,11.53,0,0,1-6.7,8,12.9,12.9,0,0,1-1.7-23.12l11.75-2.77a.59.59,0,0,1,.71.71Z"/></clipPath></defs><title>Ресурс 3</title><g id="Слой_2" data-name="Слой 2"><g id="Слой_1-2" data-name="Слой 1"><g class="cls-3"><g class="cls-4"><rect class="cls-5" width="187.65" height="187.65"/></g></g><g class="cls-6"><g class="cls-4"><rect class="cls-7" x="5.77" y="15.95" width="165.93" height="165.93"/></g></g><g class="cls-8"><g class="cls-4"><rect class="cls-9" x="10.19" y="22.22" width="161.51" height="159.67"/></g></g><g class="cls-10"><g class="cls-4"><rect class="cls-11" x="16.72" y="34.4" width="136.54" height="136.54"/></g></g><g class="cls-12"><g class="cls-4"><rect class="cls-13" x="39.04" y="2.66" width="145.96" height="145.96"/></g></g><g class="cls-14"><g class="cls-4"><rect class="cls-15" x="45.74" y="7.32" width="139.25" height="141.3"/></g></g><g class="cls-16"><g class="cls-4"><rect class="cls-7" x="66.33" y="84.5" width="36.82" height="36.83"/></g></g><g class="cls-17"><g class="cls-4"><rect class="cls-9" x="74.28" y="84.5" width="28.87" height="35.9"/></g></g></g></g></svg>