<svg xmlns="http://www.w3.org/2000/svg" xmlns:xlink="http://www.w3.org/1999/xlink" viewBox="0 0 188 188"><defs><style>.cls-1,.cls-2{fill:none;}.cls-1{clip-rule:evenodd;}.cls-3{clip-path:url(#clip-path);}.cls-4{clip-path:url(#clip-path-2);}.cls-5{fill:#f7ad3b;}.cls-6{clip-path:url(#clip-path-3);}.cls-7{fill:#3a91a5;}.cls-8{clip-path:url(#clip-path-5);}.cls-9{fill:#2b697a;}.cls-10{clip-path:url(#clip-path-7);}.cls-11{fill:#99c8d3;}.cls-12{clip-path:url(#clip-path-9);}.cls-13{fill:#89b2c4;}.cls-14{clip-path:url(#clip-path-11);}.cls-15{clip-path:url(#clip-path-13);}.cls-16{fill:#347d91;}.cls-17{clip-path:url(#clip-path-15);}.cls-18{clip-path:url(#clip-path-17);}.cls-19{clip-path:url(#clip-path-19);}.cls-20{fill:#fbf1d1;}.cls-21{clip-path:url(#clip-path-21);}.cls-22{fill:#fff5f5;}.cls-23{clip-path:url(#clip-path-23);}.cls-24{clip-path:url(#clip-path-25);}.cls-25{clip-path:url(#clip-path-27);}.cls-26{fill:#afdbe1;}.cls-27{clip-path:url(#clip-path-29);}.cls-28{clip-path:url(#clip-path-31);}</style><clipPath id="clip-path"><path class="cls-1" d="M153.65,157H34.14a7.72,7.72,0,0,1-5.69-2.51A89.21,89.21,0,0,1,93.83,5c49-.09,89,39.88,89.17,89a89,89,0,0,1-23.32,60.4A8.17,8.17,0,0,1,153.65,157Z"/></clipPath><clipPath id="clip-path-2"><rect class="cls-2" x="5" y="5" width="178" height="178"/></clipPath><clipPath id="clip-path-3"><path class="cls-1" d="M99.51,40h-60A3.49,3.49,0,0,1,36,36.5v-14A3.49,3.49,0,0,1,39.49,19h60A3.49,3.49,0,0,1,103,22.5v14A3.49,3.49,0,0,1,99.51,40Z"/></clipPath><clipPath id="clip-path-5"><path class="cls-2" d="M90.79,19v7.5a2.61,2.61,0,0,0,5.21,0V19ZM78.84,26.5a2.61,2.61,0,0,0,5.21,0V19H78.84Zm-11.95,0a2.61,2.61,0,0,0,5.21,0V19H66.89Zm-11.95,0a2.61,2.61,0,0,0,5.21,0V19H54.95ZM43,19h5.21v7.5a2.61,2.61,0,0,1-5.21,0Z"/></clipPath><clipPath id="clip-path-7"><polygon class="cls-1" points="111 68 111 82 28 82 28 68 36.3 33 102.7 33 111 68"/></clipPath><clipPath id="clip-path-9"><polygon class="cls-1" points="39.73 68 39.73 82 28 82 28 68 36.27 33 48 33 39.73 68"/></clipPath><clipPath id="clip-path-11"><path class="cls-1" d="M98.91,182.84c-1.72.1-3.46.16-5.2.16A88.25,88.25,0,0,1,28,153.75V68h83V169.14c0,6.15-3.12,12.53-8.87,13.45C101.38,182.72,99.09,182.83,98.91,182.84Z"/></clipPath><clipPath id="clip-path-13"><path class="cls-1" d="M98.59,182.69l1.41.1s0,0,0,0c-1.94.12-3.89.19-5.85.19A89.09,89.09,0,0,1,28,153.75V68H39.84v50.7A64.16,64.16,0,0,0,98.59,182.69Z"/></clipPath><clipPath id="clip-path-15"><path class="cls-1" d="M80,45v8.75C80,56.65,75.3,59,69.5,59S59,56.65,59,53.75V45Z"/></clipPath><clipPath id="clip-path-17"><ellipse class="cls-2" cx="69.5" cy="45" rx="10.5" ry="5"/></clipPath><clipPath id="clip-path-19"><path class="cls-1" d="M54.86,137A20.56,20.56,0,0,1,52,112l16.14-26.5a1,1,0,0,1,1.74,0L86,112A20.56,20.56,0,0,1,83.14,137a19.78,19.78,0,0,1-28.28,0Z"/></clipPath><clipPath id="clip-path-21"><path class="cls-1" d="M86,111.94a20.31,20.31,0,0,1,1.56,18.24,22.66,22.66,0,0,1-30.79-26.63L67.89,85.49a1,1,0,0,1,1.76,0Z"/></clipPath><clipPath id="clip-path-23"><path class="cls-2" d="M80.22,112.47l-.7-.7a2.65,2.65,0,0,0-3.75,0l-17,17a2.65,2.65,0,0,0,0,3.75l.69.7a2.65,2.65,0,0,0,3.75,0l17-17A2.65,2.65,0,0,0,80.22,112.47Zm-3,14.2a3.56,3.56,0,1,0,3.56,3.56A3.56,3.56,0,0,0,77.23,126.67Zm-19-11.9a3.56,3.56,0,1,1,3.56,3.56A3.56,3.56,0,0,1,58.2,114.77Z"/></clipPath><clipPath id="clip-path-25"><path class="cls-1" d="M130.47,175.6a87.6,87.6,0,0,1-27.85,7.4A7,7,0,0,1,98,176.43V86.74A1.74,1.74,0,0,1,99.73,85h58.54A1.74,1.74,0,0,1,160,86.74v67.19a89.45,89.45,0,0,1-11.09,10.42,1,1,0,0,1-.6.21h-6.89A11,11,0,0,0,130.47,175.6Z"/></clipPath><clipPath id="clip-path-27"><path class="cls-1" d="M130.64,175.67a86.61,86.61,0,0,1-20,6.33,7,7,0,0,1-2.65-5.5V86.75A1.73,1.73,0,0,1,109.72,85h48.56A1.73,1.73,0,0,1,160,86.75V154a89.11,89.11,0,0,1-11,10.43.91.91,0,0,1-.57.2h-6.87A11,11,0,0,0,130.64,175.67Z"/></clipPath><clipPath id="clip-path-29"><path class="cls-1" d="M149,99.69v63.78A89.81,89.81,0,0,1,129.73,175H114a7,7,0,0,1-7-6.91v-58a.7.7,0,0,1,.7-.69,40.45,40.45,0,0,0,17.9-4.17l4.09-2A40.45,40.45,0,0,1,147.59,99h.71A.7.7,0,0,1,149,99.69Z"/></clipPath><clipPath id="clip-path-31"><path class="cls-1" d="M149,99.7v64.25a88,88,0,0,1-8.51,6.05c-14.62-8.93-27.6-31.72-32.44-60l-.05-.33a.68.68,0,0,1,.54-.27,38.73,38.73,0,0,0,17.54-4.2l4-2A38.74,38.74,0,0,1,147.62,99h.69A.69.69,0,0,1,149,99.7Z"/></clipPath></defs><title>Ресурс 4</title><g id="Слой_2" data-name="Слой 2"><g id="Слой_1-2" data-name="Слой 1"><g class="cls-3"><g class="cls-4"><rect class="cls-5" width="188" height="162"/></g></g><g class="cls-6"><g class="cls-4"><rect class="cls-7" x="31" y="14" width="77" height="31"/></g></g><g class="cls-8"><g class="cls-4"><rect class="cls-9" x="38" y="14" width="63" height="20"/></g></g><g class="cls-10"><g class="cls-4"><rect class="cls-11" x="23" y="28" width="93" height="59"/></g></g><g class="cls-12"><g class="cls-4"><rect class="cls-13" x="23" y="28" width="30" height="59"/></g></g><g class="cls-14"><g class="cls-4"><rect class="cls-7" x="23" y="63" width="93" height="125"/></g></g><g class="cls-15"><g class="cls-4"><rect class="cls-16" x="23" y="63" width="82" height="125"/></g></g><g class="cls-17"><g class="cls-4"><rect class="cls-9" x="54" y="40" width="31" height="24"/></g></g><g class="cls-18"><g class="cls-4"><rect class="cls-7" x="54" y="35" width="31" height="20"/></g></g><g class="cls-19"><g class="cls-4"><rect class="cls-20" x="44" y="80" width="50" height="68"/></g></g><g class="cls-21"><g class="cls-4"><rect class="cls-22" x="51" y="80" width="43" height="57"/></g></g><g class="cls-23"><g class="cls-4"><rect class="cls-16" x="53" y="106" width="33" height="33"/></g></g><g class="cls-24"><g class="cls-4"><rect class="cls-11" x="93" y="80" width="72" height="108"/></g></g><g class="cls-25"><g class="cls-4"><rect class="cls-26" x="103" y="80" width="62" height="107"/></g></g><g class="cls-27"><g class="cls-4"><rect class="cls-20" x="102" y="94" width="52" height="86"/></g></g><g class="cls-28"><g class="cls-4"><rect class="cls-22" x="103" y="94" width="51" height="81"/></g></g></g></g></svg>