<svg xmlns="http://www.w3.org/2000/svg" xmlns:xlink="http://www.w3.org/1999/xlink" viewBox="0 0 188 188"><defs><style>.cls-1,.cls-2{fill:none;}.cls-2{clip-rule:evenodd;}.cls-3{clip-path:url(#clip-path);}.cls-4{clip-path:url(#clip-path-2);}.cls-5{fill:#f7d674;}.cls-6{clip-path:url(#clip-path-3);}.cls-7{fill:#f7ad3b;}.cls-8{clip-path:url(#clip-path-5);}.cls-9{fill:#23c77d;}.cls-10{clip-path:url(#clip-path-7);}.cls-11{fill:#03ad6b;}.cls-12{clip-path:url(#clip-path-9);}.cls-13{fill:#dcdce1;}.cls-14{clip-path:url(#clip-path-11);}.cls-15{fill:#f0eff4;}.cls-16{clip-path:url(#clip-path-13);}.cls-17{fill:#75c24b;}.cls-18{clip-path:url(#clip-path-15);}.cls-19{fill:#8cd246;}.cls-20{clip-path:url(#clip-path-17);}.cls-21{fill:#d73247;}.cls-22{clip-path:url(#clip-path-19);}.cls-23{fill:#ec3c52;}.cls-24{clip-path:url(#clip-path-21);}.cls-25{fill:#bb5335;}.cls-26{clip-path:url(#clip-path-23);}.cls-27{fill:#a0452c;}.cls-28{clip-path:url(#clip-path-25);}.cls-29{fill:#fff5f5;}.cls-30{clip-path:url(#clip-path-27);}.cls-31{fill:#fbf1d1;}.cls-32{clip-path:url(#clip-path-29);}.cls-33{clip-path:url(#clip-path-31);}.cls-34{clip-path:url(#clip-path-33);}.cls-35{clip-path:url(#clip-path-35);}.cls-36{clip-path:url(#clip-path-37);}.cls-37{fill:#d6ea9f;}.cls-38{clip-path:url(#clip-path-39);}.cls-39{fill:#e3f0be;}.cls-40{clip-path:url(#clip-path-41);}.cls-41{clip-path:url(#clip-path-43);}.cls-42{fill:#d25e3e;}</style><clipPath id="clip-path"><circle class="cls-1" cx="94" cy="94" r="89"/></clipPath><clipPath id="clip-path-2"><rect class="cls-1" x="5" y="5" width="178" height="178"/></clipPath><clipPath id="clip-path-3"><path class="cls-2" d="M174,134a89,89,0,0,1-159,0Z"/></clipPath><clipPath id="clip-path-5"><path class="cls-1" d="M96.07,95.89h.86l-.43.52Zm26-15.16c7.6-9.31,10.25-19.44,5.79-23.93-3.6-3.62-10.87-2.58-18.41,2C108.84,45.46,103.28,35,96.5,35S84.16,45.46,83.58,58.79c-7.54-4.56-14.81-5.6-18.41-2C60.71,61.29,63.36,71.42,71,80.73a8.11,8.11,0,0,0-5.79,2.18c-5.07,5.1-1,17.49,9.18,27.68C81.8,118.09,90.44,122.3,96.5,122c6.07.32,14.7-3.89,22.15-11.39C128.79,100.4,132.9,88,127.83,82.91A8.1,8.1,0,0,0,122,80.73Z"/></clipPath><clipPath id="clip-path-7"><path class="cls-2" d="M63.56,67c-1.08-4.27-.63-7.94,1.64-10.19,3.65-3.62,11-2.58,18.64,2C84.42,45.46,90.06,35,96.92,35A8.51,8.51,0,0,1,103,38c-6.61,2.53-11.9,12.47-13.57,25.31a3.89,3.89,0,0,1-5.49,3c-8.25-3.72-15.71-4-19.75,0A9.06,9.06,0,0,0,63.56,67Z"/></clipPath><clipPath id="clip-path-9"><path class="cls-2" d="M71,49V150a7,7,0,0,1-7,7H30.84A89.67,89.67,0,0,1,22,146.79V49a7,7,0,0,1,7-7H64A7,7,0,0,1,71,49Z"/></clipPath><clipPath id="clip-path-11"><path class="cls-2" d="M64,157H36a7,7,0,0,1-7-7V49a7,7,0,0,1,7-7H64a7,7,0,0,1,7,7V150A7,7,0,0,1,64,157Z"/></clipPath><clipPath id="clip-path-13"><path class="cls-2" d="M61.33,56h.92A1.75,1.75,0,0,1,64,57.74V150H32.5a3.49,3.49,0,0,1-3.5-3.48V64.7A1.75,1.75,0,0,1,30.75,63h.92A33.31,33.31,0,0,0,46.5,59.48,33.29,33.29,0,0,1,61.33,56Z"/></clipPath><clipPath id="clip-path-15"><path class="cls-1" d="M53.5,80.37A3.48,3.48,0,1,1,57,76.89,3.49,3.49,0,0,1,53.5,80.37ZM50,105.68a3.48,3.48,0,1,1,3.5-3.48A3.49,3.49,0,0,1,50,105.68Zm-7,24.37a3.48,3.48,0,1,1,3.5-3.48A3.49,3.49,0,0,1,43,130.05ZM62.25,56h-.92A33.29,33.29,0,0,0,46.5,59.48,33.29,33.29,0,0,1,36,62.68v3.77a3.48,3.48,0,1,1,0,7V87.33a3.48,3.48,0,1,1,0,7v41.78a3.48,3.48,0,1,1,0,7v7H64V57.74A1.75,1.75,0,0,0,62.25,56Z"/></clipPath><clipPath id="clip-path-17"><path class="cls-2" d="M71,28.33V49H22V28.33a6.94,6.94,0,0,1,7-6.89h7V18H53.5v3.44H64A6.94,6.94,0,0,1,71,28.33Z"/></clipPath><clipPath id="clip-path-19"><path class="cls-2" d="M71,28V49H29V28a7,7,0,0,1,7-7h7.42a1.75,1.75,0,0,0,0-3.5H34.25a1.75,1.75,0,0,1,0-3.5H50a3.5,3.5,0,0,1,3.5,3.5V21H64A7,7,0,0,1,71,28Z"/></clipPath><clipPath id="clip-path-21"><path class="cls-2" d="M156.62,112.86c-4.41,12.15-16.49,18.89-27,15.06s-15.43-16.79-11-28.94c3.55-9.79,12.08-16.06,20.75-16.13L157.81,32A89.06,89.06,0,0,1,167,43.18L151.06,87.12C157.66,92.77,160.17,103.07,156.62,112.86Z"/></clipPath><clipPath id="clip-path-23"><path class="cls-2" d="M125.7,126c-7.74-5.34-10.91-16.4-7.06-26.87C122.25,89.32,130.92,83,139.73,83l18.75-51q2.35,2.4,4.52,5L145.17,85.44a3.47,3.47,0,0,1-2.84,2.26c-8.08.94-15.7,7-19,16C120.34,111.75,121.51,120.12,125.7,126Z"/></clipPath><clipPath id="clip-path-25"><path class="cls-2" d="M93.61,75.56c12.72,12.23,37.11,20.86,65.67,22.09,3.68.16,6.69,4.89,6.72,10.73v.11c0,20.16-25.74,36.51-57.5,36.51S51,128.65,51,108.49c0-15.84,15.89-29.32,38.1-34.38A4.85,4.85,0,0,1,93.61,75.56Z"/></clipPath><clipPath id="clip-path-27"><path class="cls-2" d="M122,144.06a90.74,90.74,0,0,1-13.14.94C76.91,145,51,128.65,51,108.49c0-15.84,16-29.33,38.34-34.38a4.44,4.44,0,0,1,2.28.08C79,81.66,71,92.29,71,104.08,71,123.67,92.86,140,122,144.06Z"/></clipPath><clipPath id="clip-path-29"><path class="cls-2" d="M61.62,148a94.52,94.52,0,0,1-14.55-35A3.29,3.29,0,0,1,50.3,109H167.7a3.29,3.29,0,0,1,3.23,3.94,94.52,94.52,0,0,1-14.55,35,39.51,39.51,0,0,1-32.48,17H94.1A39.51,39.51,0,0,1,61.62,148Z"/></clipPath><clipPath id="clip-path-31"><path class="cls-2" d="M124.05,165H105.6a39.35,39.35,0,0,1-32.38-17A95.85,95.85,0,0,1,58,109H167.71a3.29,3.29,0,0,1,3.22,3.94,94.69,94.69,0,0,1-14.5,35A39.35,39.35,0,0,1,124.05,165Z"/></clipPath><clipPath id="clip-path-33"><path class="cls-2" d="M165,151.08C165,166.5,151.79,179,135.5,179S106,166.5,106,151.08a26.7,26.7,0,0,1,4.49-14.81,26.26,26.26,0,0,0,4.36-14.64v-.09c0-10.79,9.25-19.54,20.65-19.54s20.65,8.75,20.65,19.54v.09a26.26,26.26,0,0,0,4.36,14.64A26.7,26.7,0,0,1,165,151.08Z"/></clipPath><clipPath id="clip-path-35"><path class="cls-2" d="M139,178.82a31.83,31.83,0,0,1-3.31.18c-16.4,0-29.69-12.5-29.69-27.92a26.57,26.57,0,0,1,4.52-14.81,26.14,26.14,0,0,0,4.39-14.64v-.09c0-10.79,9.31-19.54,20.78-19.54a22.23,22.23,0,0,1,3.31.25c-9.91,1.49-17.48,9.56-17.48,19.29v.09a26.14,26.14,0,0,1-4.39,14.64,26.57,26.57,0,0,0-4.52,14.81C112.61,165.45,124.16,177.28,139,178.82Z"/></clipPath><clipPath id="clip-path-37"><path class="cls-2" d="M160,151.21c0,13.12-11.21,23.79-25,23.79s-25-10.67-25-23.79a22.87,22.87,0,0,1,3.74-12.53,31.3,31.3,0,0,0,5.08-17.3v-.06c0-8.45,7.26-15.32,16.18-15.32s16.18,6.87,16.18,15.32v.07a31.29,31.29,0,0,0,5.08,17.3A22.87,22.87,0,0,1,160,151.21Z"/></clipPath><clipPath id="clip-path-39"><path class="cls-2" d="M142.19,174c-12.05-3-21.5-12.72-23-25.24A28.87,28.87,0,0,1,122,132.53a39.5,39.5,0,0,0,3.78-22.39v-.08c0-.41-.08-.82-.1-1.24A16.68,16.68,0,0,1,135,106c8.91,0,16.16,6.87,16.16,15.32v.07a31.32,31.32,0,0,0,5.08,17.3A22.89,22.89,0,0,1,160,151.21C160,162,152.48,171.06,142.19,174Z"/></clipPath><clipPath id="clip-path-41"><ellipse class="cls-1" cx="135" cy="152" rx="9" ry="12"/></clipPath><clipPath id="clip-path-43"><path class="cls-2" d="M144,152c0,6.38-3.72,11.6-8.42,12-2.17-2.74-3.58-7.1-3.58-12s1.4-9.26,3.58-12C140.28,140.4,144,145.62,144,152Z"/></clipPath></defs><title>Ресурс 5</title><g id="Слой_2" data-name="Слой 2"><g id="Слой_1-2" data-name="Слой 1"><g class="cls-3"><g class="cls-4"><rect class="cls-5" width="188" height="188"/></g></g><g class="cls-6"><g class="cls-4"><rect class="cls-7" x="10" y="129" width="169" height="59"/></g></g><g class="cls-8"><g class="cls-4"><rect class="cls-9" x="58" y="30" width="77" height="97"/></g></g><g class="cls-10"><g class="cls-4"><rect class="cls-11" x="58" y="30" width="50" height="42"/></g></g><g class="cls-12"><g class="cls-4"><rect class="cls-13" x="17" y="37" width="59" height="125"/></g></g><g class="cls-14"><g class="cls-4"><rect class="cls-15" x="24" y="37" width="52" height="125"/></g></g><g class="cls-16"><g class="cls-4"><rect class="cls-17" x="24" y="51" width="45" height="104"/></g></g><g class="cls-18"><g class="cls-4"><rect class="cls-19" x="31" y="51" width="38" height="104"/></g></g><g class="cls-20"><g class="cls-4"><rect class="cls-21" x="17" y="13" width="59" height="41"/></g></g><g class="cls-22"><g class="cls-4"><rect class="cls-23" x="24" y="9" width="52" height="45"/></g></g><g class="cls-24"><g class="cls-4"><rect class="cls-25" x="112" y="27" width="60" height="107"/></g></g><g class="cls-26"><g class="cls-4"><rect class="cls-27" x="112" y="27" width="56" height="104"/></g></g><g class="cls-28"><g class="cls-4"><rect class="cls-29" x="46" y="69" width="125" height="81"/></g></g><g class="cls-30"><g class="cls-4"><rect class="cls-31" x="46" y="69" width="81" height="81"/></g></g><g class="cls-32"><g class="cls-4"><rect class="cls-21" x="42" y="104" width="134" height="66"/></g></g><g class="cls-33"><g class="cls-4"><rect class="cls-23" x="53" y="104" width="123" height="66"/></g></g><g class="cls-34"><g class="cls-4"><rect class="cls-19" x="101" y="97" width="69" height="87"/></g></g><g class="cls-35"><g class="cls-4"><rect class="cls-17" x="101" y="97" width="43" height="87"/></g></g><g class="cls-36"><g class="cls-4"><rect class="cls-37" x="105" y="101" width="60" height="79"/></g></g><g class="cls-38"><g class="cls-4"><rect class="cls-39" x="114" y="101" width="51" height="78"/></g></g><g class="cls-40"><g class="cls-4"><rect class="cls-25" x="121" y="135" width="28" height="34"/></g></g><g class="cls-41"><g class="cls-4"><rect class="cls-42" x="127" y="135" width="22" height="34"/></g></g></g></g></svg>