<?xml version="1.0" encoding="UTF-8"?>
<svg width="50px" height="50px" viewBox="0 0 50 50" version="1.1" xmlns="http://www.w3.org/2000/svg" xmlns:xlink="http://www.w3.org/1999/xlink">
    <!-- Generator: Sketch 52.2 (67145) - http://www.bohemiancoding.com/sketch -->
    <title>Fill 56</title>
    <desc>Created with Sketch.</desc>
    <g id="Page-1" stroke="none" stroke-width="1" fill="none" fill-rule="evenodd">
        <path d="M25,50 C11.193,50 0,38.8 0,25 C0,11.19 11.193,0 25,0 C38.808,0 50,11.19 50,25 C50,38.8 38.808,50 25,50 Z M24.774,9.45 C22.38,10.41 21.162,12.68 21.162,16.21 L21.162,19.65 L17.802,19.65 L17.802,25.41 L21.162,25.41 L21.162,42 L28.008,42 L28.008,25.41 L32.67,25.41 L33.3,19.65 L28.008,19.65 L28.008,17.05 C28.008,16.25 28.092,15.66 28.302,15.33 C28.596,14.82 29.185,14.571 30.108,14.571 L33.216,14.571 L33.216,8.86 L28.008,8.86 C26.958,8.86 25.95,8.99 24.774,9.45 Z" id="Fill-56" fill="#BFBFBF"></path>
    </g>
</svg>