<?xml version="1.0" encoding="UTF-8"?>
<svg width="50px" height="50px" viewBox="0 0 50 50" version="1.1" xmlns="http://www.w3.org/2000/svg" xmlns:xlink="http://www.w3.org/1999/xlink">
    <!-- Generator: Sketch 52.2 (67145) - http://www.bohemiancoding.com/sketch -->
    <title>Fill 51</title>
    <desc>Created with Sketch.</desc>
    <g id="Page-1" stroke="none" stroke-width="1" fill="none" fill-rule="evenodd">
        <path d="M13,10.12 C11.275,10.57 10,12.14 10,14 L10,19 L18.292,19 C19.94,17.16 22.335,16 25,16 C27.666,16 30.061,17.16 31.709,19 L40,19 L40,14 C40,11.79 38.214,10 36.001,10 L14,10 C13.89,10 13.782,10 13.675,10.01 C13.949,9.98 14,10 14,10 L14,16 L13,16 L13,10.12 Z M13.373,10.051 C13.473,10.03 13.573,10.02 13.675,10.01 L13.373,10.051 Z M33.065,21 L40,21 L40,34 C40,37.321 37.315,40 34.002,40 L15.999,40 C12.689,40 10,37.31 10,34 L10,21 L16.936,21 C16.337,22.2 16,23.56 16,25 C16,29.97 20.03,34 25,34 C29.971,34 34,29.97 34,25 C34,23.56 33.664,22.2 33.065,21 Z M25,50 C38.808,50 50,38.8 50,25 C50,11.19 38.808,0 25,0 C11.193,0 0,11.19 0,25 C0,38.8 11.193,50 25,50 Z M17,16 L18,16 L18,10 L17,10 L17,16 Z M15,16 L16,16 L16,10 L15,10 L15,16 Z M33,12 C32.448,12 32,12.44 32,13 L32,16 C32,16.55 32.444,17 33,17 L36.001,17 C36.553,17 37,16.55 37,16 L37,13 C37,12.45 36.557,12 36.001,12 L33,12 Z M25,32 C28.867,32 32,28.861 32,25 C32,21.13 28.867,18 25,18 C21.134,18 18,21.13 18,25 C18,28.861 21.134,32 25,32 Z" id="Fill-51" fill="#BFBFBF"></path>
    </g>
</svg>