<?xml version="1.0" encoding="UTF-8"?>
<svg width="50px" height="50px" viewBox="0 0 50 50" version="1.1" xmlns="http://www.w3.org/2000/svg" xmlns:xlink="http://www.w3.org/1999/xlink">
    <!-- Generator: Sketch 52.2 (67145) - http://www.bohemiancoding.com/sketch -->
    <title>Fill 492</title>
    <desc>Created with Sketch.</desc>
    <g id="Page-1" stroke="none" stroke-width="1" fill="none" fill-rule="evenodd">
        <path d="M25,50 C38.8071187,50 50,38.8071187 50,25 C50,11.1928813 38.8071187,0 25,0 C11.1928813,0 0,11.1928813 0,25 C0,38.8071187 11.1928813,50 25,50 Z M25.5,42 C26.6359664,42 28.3926758,39.3795019 30.5735294,35.9368421 C33.5874888,31.1790551 37,24.8067825 37,21.2132871 C37,15.019595 31.8513824,10 25.5,10 C19.1486176,10 14,15.019595 14,21.2132871 C14,25.0681591 17.8778712,31.7916868 21.1029412,36.6105263 C23.0596492,39.534203 24.478223,42 25.5,42 Z M25,25 C27.2086667,25 29,23.2133333 29,21 C29,18.7933333 27.2086667,17 25,17 C22.7906667,17 21,18.7933333 21,21 C21,23.2133333 22.7906667,25 25,25 Z" id="Fill-492" fill="#F28073"></path>
    </g>
</svg>