<?xml version="1.0" encoding="UTF-8"?>
<svg width="50px" height="50px" viewBox="0 0 50 50" version="1.1" xmlns="http://www.w3.org/2000/svg" xmlns:xlink="http://www.w3.org/1999/xlink">
    <!-- Generator: Sketch 52.2 (67145) - http://www.bohemiancoding.com/sketch -->
    <title>Fill 57</title>
    <desc>Created with Sketch.</desc>
    <g id="Page-1" stroke="none" stroke-width="1" fill="none" fill-rule="evenodd">
        <path d="M25,50 C38.808,50 50,38.8020833 50,25 C50,11.1875 38.808,0 25,0 C11.193,0 0,11.1875 0,25 C0,38.8020833 11.193,50 25,50 Z M11,16 L25.0668901,30 L39,16 L11,16 Z M10,19 L18,26.574048 L10,34 L10,19 Z M40,18 L40,33 L32,25.605042 L40,18 Z M30.6386186,27 L24.9995011,32.4087404 L19.2755622,27 L11,35 L39,35 L30.6386186,27 Z" id="Fill-57" fill="#95CED7"></path>
    </g>
</svg>