<?xml version="1.0" encoding="UTF-8"?>
<svg width="50px" height="50px" viewBox="0 0 50 50" version="1.1" xmlns="http://www.w3.org/2000/svg" xmlns:xlink="http://www.w3.org/1999/xlink">
    <!-- Generator: Sketch 52.2 (67145) - http://www.bohemiancoding.com/sketch -->
    <title>Group 2</title>
    <desc>Created with Sketch.</desc>
    <g id="Page-1" stroke="none" stroke-width="1" fill="none" fill-rule="evenodd">
        <g id="Group-2">
            <circle id="Fill-99" fill="#FFD271" cx="25" cy="25" r="25"></circle>
            <path d="M30,28 C28.23,28 26.685,28.925 25.796,30.312 L20.441,27.252 C20.787,26.572 21,25.814 21,25 C21,24.497 20.903,24.021 20.765,23.563 L26.336,20.38 C27.249,21.37 28.547,22 30,22 C32.762,22 35,19.762 35,17 C35,14.238 32.762,12 30,12 C27.238,12 25,14.238 25,17 C25,17.503 25.097,17.979 25.235,18.438 L19.664,21.62 C18.751,20.631 17.453,20 16,20 C13.238,20 11,22.238 11,25 C11,27.762 13.238,30 16,30 C17.14,30 18.179,29.604 19.02,28.962 L25.055,32.46 C25.035,32.64 25,32.814 25,33 C25,35.762 27.238,38 30,38 C32.762,38 35,35.762 35,33 C35,30.238 32.762,28 30,28" id="Fill-98" fill="#FFFFFE"></path>
        </g>
    </g>
</svg>