<?xml version="1.0" encoding="UTF-8"?>
<svg width="50px" height="50px" viewBox="0 0 50 50" version="1.1" xmlns="http://www.w3.org/2000/svg" xmlns:xlink="http://www.w3.org/1999/xlink">
    <!-- Generator: Sketch 52.2 (67145) - http://www.bohemiancoding.com/sketch -->
    <title>Group</title>
    <desc>Created with Sketch.</desc>
    <g id="Page-1" stroke="none" stroke-width="1" fill="none" fill-rule="evenodd">
        <g id="Group">
            <circle id="Fill-179" fill="#92C38A" cx="25" cy="25" r="25"></circle>
            <path d="M36.2825323,9.59475 C35.4885323,8.80175 34.1995323,8.80175 33.4045323,9.59475 L29.0875323,15.33475 C28.4285323,16.30575 28.2935323,17.41175 29.0875323,18.20475 L30.8495323,19.96175 C29.5435323,21.71175 27.9755323,23.61975 26.2105323,25.37975 C24.2145323,27.36975 21.9945323,29.17875 19.9985323,30.66475 L18.2955323,28.96775 C17.5015323,28.17475 16.3925323,28.30875 15.4175323,28.96775 L9.66153231,33.27275 C8.69653231,33.93775 8.86653231,35.34975 9.66153231,36.14275 L12.5395323,39.01175 C14.1295323,40.59775 16.1965323,40.08975 18.2955323,39.01175 C18.2955323,39.01175 24.6485323,35.45575 30.0875323,30.03175 C35.2035323,24.92975 39.1605323,18.20475 39.1605323,18.20475 C39.9855323,15.94175 40.7505323,14.04975 39.1605323,12.46475 L36.2825323,9.59475 Z" id="Fill-178" fill="#FFFFFE" transform="translate(24.543924, 24.509836) scale(-1, 1) translate(-24.543924, -24.509836) "></path>
        </g>
    </g>
</svg>